<?xml version="1.0" encoding="UTF-8" standalone="no"?>
<svg
   width="601"
   height="515"
   viewBox="0 0 601 515"
   fill="none"
   version="1.1"
   id="svg37"
   sodipodi:docname="Hero2.svg"
   inkscape:version="1.3.2 (091e20e, 2023-11-25)"
   xmlns:inkscape="http://www.inkscape.org/namespaces/inkscape"
   xmlns:sodipodi="http://sodipodi.sourceforge.net/DTD/sodipodi-0.dtd"
   xmlns="http://www.w3.org/2000/svg"
   xmlns:svg="http://www.w3.org/2000/svg">
  <sodipodi:namedview
     id="namedview37"
     pagecolor="#ffffff"
     bordercolor="#000000"
     borderopacity="0.25"
     inkscape:showpageshadow="2"
     inkscape:pageopacity="0.0"
     inkscape:pagecheckerboard="0"
     inkscape:deskcolor="#d1d1d1"
     inkscape:zoom="1.4156179"
     inkscape:cx="227.81571"
     inkscape:cy="253.95271"
     inkscape:window-width="1712"
     inkscape:window-height="982"
     inkscape:window-x="0"
     inkscape:window-y="43"
     inkscape:window-maximized="0"
     inkscape:current-layer="svg37" />
  <g
     clip-path="url(#clip0_332_1228)"
     id="g1"
     transform="translate(-45.209939,30.375428)">
    <path
       d="m 311.536,432.535 17.601,-5.186 -5.136,17.651 5.136,17.601 -17.601,-5.136 -17.651,5.136 5.185,-17.601 -5.185,-17.651 z"
       fill="#000000"
       stroke="#ffffff"
       stroke-miterlimit="10"
       id="path1" />
  </g>
  <g
     clip-path="url(#clip1_332_1228)"
     id="g2"
     transform="translate(-45.209939,30.375428)">
    <path
       d="m 125.484,345.509 31.476,17.15 -31.476,17.288 -17.218,31.407 -17.2192,-31.407 -31.476,-17.288 31.476,-17.15 17.2192,-31.545 z"
       fill="#000000"
       stroke="#ffffff"
       stroke-miterlimit="10"
       id="path2" />
  </g>
  <path
     d="m 603.26289,330.70136 c -1.899,3.444 -5.438,5.935 -10.533,7.48 -5.098,1.546 -11.71,2.13 -19.671,1.787 -15.921,-0.687 -37.122,-5.076 -62.137,-12.732 -50.02,-15.31 -115.182,-43.652 -183.621,-81.403 -68.44,-37.75 -127.173,-77.748 -166.806,-111.89 -19.819,-17.074 -34.8411,-32.666 -43.9147,-45.765 -4.5374,-6.551 -7.5708,-12.455 -8.9826,-17.592 -1.4112,-5.134 -1.1915,-9.456 0.708,-12.899 1.8996,-3.444 5.4379,-5.935 10.5333,-7.48 5.0977,-1.546 11.7098,-2.13 19.671,-1.787 15.921,0.687 37.122,5.076 62.137,12.732 50.02,15.31 115.182,43.652 183.621,81.403 68.44,37.75 127.173,77.747 166.806,111.89 19.819,17.073 34.841,32.665 43.915,45.765 4.537,6.551 7.571,12.455 8.982,17.592 1.412,5.134 1.192,9.455 -0.708,12.899 z"
     stroke="#000000"
     id="path3" />
  <path
     d="m 583.03289,367.37536 c -1.9,3.444 -5.438,5.935 -10.533,7.48 -5.098,1.546 -11.71,2.13 -19.671,1.786 -15.921,-0.686 -37.123,-5.075 -62.137,-12.731 -50.02,-15.31 -115.182,-43.652 -183.622,-81.403 -68.439,-37.751 -127.172,-77.748 -166.805,-111.89 -19.8195,-17.074 -34.8416,-32.666 -43.915204,-45.766 -4.5374,-6.55 -7.5707,-12.454 -8.9826,-17.591 -1.4112,-5.134 -1.1915,-9.456 0.7081,-12.9 1.8996,-3.443 5.4379,-5.935 10.5332,-7.48 5.097804,-1.545 11.709804,-2.129 19.671104,-1.786 15.9205,0.687 37.1224,5.076 62.1364,12.732 50.021,15.309 115.182,43.652 183.622,81.402 68.439,37.751 127.172,77.748 166.805,111.89 19.82,17.074 34.842,32.666 43.915,45.766 4.538,6.551 7.571,12.455 8.983,17.591 1.411,5.134 1.191,9.456 -0.708,12.9 z"
     stroke="#000000"
     id="path4" />
  <path
     d="m 562.80389,404.04936 c -1.899,3.444 -5.438,5.935 -10.533,7.48 -5.098,1.546 -11.71,2.13 -19.671,1.787 -15.921,-0.687 -37.122,-5.076 -62.137,-12.732 -50.02,-15.31 -115.182,-43.652 -183.621,-81.403 -68.44,-37.75 -127.173,-77.747 -166.8055,-111.89 -19.8195,-17.073 -34.841604,-32.665 -43.915204,-45.765 -4.5374,-6.551 -7.5708,-12.455 -8.9826,-17.592 -1.4112,-5.134 -1.1915,-9.455 0.7081,-12.899 1.8995,-3.444 5.4378,-5.935 10.5332,-7.48 5.0978,-1.546 11.7098,-2.13 19.6711,-1.787 15.920504,0.687 37.122204,5.076 62.136904,12.732 50.02,15.31 115.182,43.652 183.621,81.403 68.44,37.75 127.173,77.748 166.806,111.89 19.819,17.074 34.841,32.666 43.915,45.765 4.537,6.551 7.571,12.455 8.982,17.592 1.412,5.134 1.192,9.455 -0.708,12.899 z"
     stroke="#000000"
     id="path5" />
  <circle
     cx="95.303925"
     cy="177.96616"
     r="15.5"
     fill="#b9ff66"
     id="circle5" />
  <circle
     cx="403.87686"
     cy="471.73306"
     r="10"
     fill="#b9ff66"
     id="circle6" />
  <circle
     cx="45.304024"
     cy="137.96616"
     r="23.5"
     fill="#000000"
     id="circle7" />
  <path
     d="m 287.43606,420.32308 c -6.304,2.154 -13.508,-2.115 -16.014,-9.519 l -38.999,-114.261 22.788,-7.795 39.038,114.418 c 2.506,7.325 -0.548,15.003 -6.813,17.157 z"
     fill="#000000"
     id="path7" />
  <path
     d="m 284.02906,421.73308 c -1.84,0 -3.719,-0.431 -5.521,-1.332 -3.641,-1.802 -6.539,-5.17 -7.948,-9.323 l -38.999,-114.261 c -0.156,-0.431 0.079,-0.94 0.548,-1.097 l 22.789,-7.795 c 0.235,-0.079 0.47,-0.079 0.665,0.039 0.196,0.117 0.353,0.274 0.431,0.509 l 39.038,114.419 c 2.623,7.755 -0.666,15.942 -7.361,18.253 -1.136,0.392 -2.389,0.588 -3.642,0.588 z m -50.51,-124.642 38.725,113.439 c 1.253,3.721 3.837,6.777 7.047,8.343 2.585,1.254 5.365,1.489 7.871,0.627 5.795,-1.998 8.614,-9.205 6.265,-16.06 l -38.764,-113.596 z"
     fill="#000000"
     id="path8" />
  <path
     d="m 251.17806,190.11508 -73.73,52.606 -28.7,29.81 -11.277,19.938 -0.039,0.156 c -2.232,3.447 -0.94,11.399 3.25,19.507 4.111,7.991 9.906,13.554 13.978,13.867 l -0.117,0.078 21.652,2.351 40.526,-6.464 86.024,-30.788 106.933,18.332 0.744,0.039 c -26.86,-5.014 -63.118,-40.934 -89.47,-91.738 -26.312,-50.766 -34.691,-100.944 -23.14,-125.700004 h -0.04 l -46.007,96.752004 z"
     fill="#b9ff66"
     id="path9" />
  <path
     d="m 428.19306,307.33608 c 26.428,-13.73 21.317,-75.974 -11.414,-139.026 -32.731,-63.0523 -80.689,-103.035804 -107.116,-89.305904 -26.428,13.7299 -21.317,75.973904 11.414,139.025904 32.731,63.052 80.689,103.036 107.116,89.306 z"
     fill="#ffffff"
     id="path10" />
  <path
     d="m 416.57006,310.91808 c -11.512,0 -25.373,-6.424 -40.291,-18.919 -20.321,-17 -40.251,-43.206 -56.109,-73.838 -24.002,-46.378 -33.909,-93.9316 -25.216,-121.155404 2.897,-9.0877 7.753,-15.4334 14.37,-18.8413 13.156,-6.7374 31.676,-1.0184 52.194,16.1385 20.321,17.000204 40.251,43.205204 56.109,73.837204 24.042,46.379 33.948,93.932 25.216,121.156 -2.897,9.088 -7.753,15.433 -14.37,18.841 -3.563,1.88 -7.557,2.781 -11.903,2.781 z m -95.265,-233.772104 c -4.033,0 -7.792,0.8226 -11.159,2.5853 -6.226,3.1728 -10.768,9.2051 -13.508,17.8619 -8.575,26.832104 1.292,73.876904 25.098,119.862904 32.421,62.556 79.955,102.589 105.993,89.232 6.226,-3.173 10.768,-9.205 13.509,-17.862 8.575,-26.832 -1.292,-73.877 -25.099,-119.863 -28.231,-54.448 -67.856,-91.817104 -94.834,-91.817104 z"
     fill="#000000"
     id="path11" />
  <path
     d="m 416.57006,310.91808 c -11.512,0 -25.373,-6.424 -40.291,-18.919 -20.321,-17.001 -40.251,-43.206 -56.109,-73.838 -24.002,-46.378 -33.909,-93.9317 -25.216,-121.155504 2.897,-9.0877 7.753,-15.4334 14.37,-18.8413 8.81,-4.5438 20.321,-3.4078 33.282,3.2512 12.412,6.3849 25.842,17.7053 38.92,32.707804 0.313,0.3525 0.274,0.9009 -0.078,1.2143 -0.353,0.3134 -0.901,0.2742 -1.214,-0.0783 -26.547,-30.475104 -53.408,-44.106604 -70.088,-35.528104 -6.226,3.1728 -10.768,9.2052 -13.508,17.8619 -8.575,26.832204 1.292,73.877004 25.098,119.863004 28.192,54.409 67.856,91.817 94.795,91.817 4.033,0 7.792,-0.823 11.159,-2.585 6.226,-3.173 10.768,-9.205 13.509,-17.862 8.575,-26.832 -1.292,-73.877 -25.099,-119.863 -7.087,-13.71 -15.075,-26.598 -23.65,-38.3096 -0.274,-0.3918 -0.195,-0.9401 0.196,-1.2143 0.392,-0.2742 0.94,-0.1959 1.214,0.1958 8.653,11.7901 16.641,24.7561 23.806,38.5441 24.003,46.339 33.909,93.893 25.177,121.117 -2.897,9.087 -7.753,15.433 -14.37,18.841 -3.563,1.88 -7.557,2.781 -11.903,2.781 z"
     fill="#000000"
     id="path12" />
  <path
     d="m 368.23006,227.07208 c 6.123,-3.181 4.945,-17.588 -2.63,-32.18 -7.575,-14.592 -18.678,-23.843 -24.801,-20.662 -6.122,3.181 -4.944,17.588 2.631,32.18 7.574,14.592 18.678,23.843 24.8,20.662 z"
     fill="#b9ff66"
     id="path13" />
  <path
     d="m 365.55106,228.58108 c -6.735,0 -16.132,-8.696 -22.906,-21.818 -5.638,-10.89 -7.948,-22.093 -5.873,-28.556 0.744,-2.272 1.958,-3.878 3.641,-4.74 6.657,-3.408 18.051,5.876 25.96,21.113 5.639,10.89 7.949,22.093 5.874,28.556 -0.744,2.272 -1.958,3.878 -3.642,4.74 -0.94,0.47 -1.958,0.705 -3.054,0.705 z m -22.084,-54.134 c -0.822,0 -1.605,0.156 -2.271,0.509 -1.292,0.666 -2.231,1.919 -2.819,3.76 -1.918,6.033 0.314,16.765 5.756,27.263 7.205,13.906 18.051,23.268 23.65,20.369 1.292,-0.666 2.232,-1.919 2.819,-3.76 1.919,-6.072 -0.352,-16.765 -5.756,-27.263 -6.343,-12.182 -15.427,-20.878 -21.379,-20.878 z"
     fill="#b9ff66"
     id="path14" />
  <path
     d="m 410.61906,296.30708 c -10.102,0 -22.24,-5.64 -35.318,-16.569 -17.777,-14.885 -35.24,-37.839 -49.101,-64.632 -21.026,-40.581 -29.68,-82.22 -22.083,-106.0752 2.545,-7.9908 6.813,-13.553104 12.647,-16.569304 13.391,-6.8549 33.086,1.0576 54.073,21.700704 0.352,0.3526 0.352,0.8618 0,1.2143 -0.352,0.3526 -0.861,0.3526 -1.214,0 -20.439,-20.094704 -39.429,-27.928904 -52.076,-21.387304 -5.404,2.7811 -9.358,7.990904 -11.786,15.550904 -7.479,23.4242 1.136,64.5539 21.966,104.7819 24.629,47.593 59.281,80.262 82.853,80.262 3.524,0 6.773,-0.744 9.749,-2.233 5.404,-2.781 9.358,-7.991 11.786,-15.551 7.479,-23.424 -1.136,-64.554 -21.966,-104.782 -6.304,-12.143 -13.352,-23.542 -20.948,-33.844 -0.274,-0.392 -0.196,-0.94 0.196,-1.214 0.391,-0.2744 0.939,-0.196 1.213,0.196 7.675,10.419 14.762,21.857 21.105,34.078 21.026,40.581 29.68,82.22 22.084,106.075 -2.545,7.991 -6.813,13.554 -12.647,16.57 -3.211,1.606 -6.735,2.428 -10.533,2.428 z"
     fill="#000000"
     id="path15" />
  <path
     d="m 176.23506,329.25008 c -0.039,0 -0.078,0 -0.078,0 l -21.653,-2.35 c -0.117,0 -0.235,-0.039 -0.352,-0.117 -4.464,-0.706 -10.102,-6.346 -14.214,-14.259 -4.385,-8.343 -5.677,-16.491 -3.289,-20.329 l 0.04,-0.118 11.276,-19.977 c 0.039,-0.078 0.079,-0.118 0.118,-0.157 l 28.701,-29.809 c 0.039,-0.039 0.078,-0.078 0.117,-0.117 l 73.534,-52.49 46.516,-97.809504 c 0.117,-0.1959 0.274,-0.3525 0.509,-0.4309 0.235,-0.0783 0.47,-0.0783 0.666,0.0392 0.43,0.1958 0.626,0.7051 0.43,1.136 -11.785,25.265204 -2.466,75.482204 23.141,124.916204 25.647,49.512 61.395,86.176 88.922,91.229 0.43,0.079 0.744,0.47 0.704,0.94 -0.039,0.431 -0.43,0.745 -0.861,0.784 l -0.744,-0.039 c -0.039,0 -0.078,0 -0.117,0 l -106.738,-18.293 -85.828,30.71 c -0.039,0 -0.117,0.039 -0.157,0.039 l -40.525,6.463 c -0.039,0.039 -0.078,0.039 -0.118,0.039 z m -21.104,-3.995 21.104,2.272 40.33,-6.463 85.985,-30.75 c 0.157,-0.039 0.274,-0.078 0.431,-0.039 l 96.087,16.452 c -25.96,-11.399 -56.305,-45.047 -78.82,-88.526 -22.357,-43.167 -32.342,-86.9991 -26.86,-114.693 l -41.426,86.96 c -0.079,0.117 -0.157,0.235 -0.274,0.313 l -73.651,52.607 -28.584,29.652 -11.277,19.977 c 0,0.039 -0.039,0.079 -0.039,0.079 -2.036,3.172 -0.665,11.007 3.289,18.645 3.877,7.482 9.476,13.122 13.313,13.396 0.157,0 0.274,0.04 0.392,0.118 z"
     fill="#000000"
     id="path16" />
  <path
     d="m 251.29406,189.80208 46.478,-97.732104 h 0.039 c -11.551,24.756104 -3.133,74.934104 23.141,125.700104 26.351,50.844 62.609,86.763 89.548,91.699 l -0.744,-0.039 -106.777,-18.293 -2.466,-0.431 c -12.413,-2.194 -28.975,-18.332 -40.839,-41.365 -12.178,-23.62 -14.331,-47.161 -8.928,-58.364 z"
     fill="#ffffff"
     id="path17" />
  <path
     d="m 410.50006,310.33108 c -0.039,0 0,0 0,0 l -0.783,-0.04 c -0.039,0 -0.079,0 -0.118,0 l -106.776,-18.292 -2.467,-0.431 c -13.117,-2.311 -29.758,-19.116 -41.465,-41.796 -13.274,-25.774 -13.939,-48.728 -8.928,-59.148 l 0.588,-1.175 46.477,-97.692404 c 0.117,-0.1959 0.274,-0.3526 0.509,-0.4309 0.235,-0.0784 0.47,-0.0784 0.666,0.0392 0.43,0.1958 0.626,0.705 0.43,1.1359 -11.785,25.265304 -2.466,75.482204 23.141,124.916204 25.647,49.512 61.396,86.176 88.922,91.229 0.43,0.079 0.744,0.47 0.704,0.94 -0.117,0.392 -0.469,0.745 -0.9,0.745 z m -117.192,-206.8231 -41.23,86.6851 -0.588,1.175 c -4.972,10.342 -3.523,33.452 8.928,57.582 11.472,22.249 27.643,38.701 40.251,40.894 l 2.467,0.431 95.891,16.452 c -25.96,-11.399 -56.305,-45.047 -78.819,-88.527 -22.358,-43.166 -32.342,-86.9983 -26.9,-114.6921 z"
     fill="#000000"
     id="path18" />
  <path
     d="m 175.06006,329.13308 c -0.039,0 -0.078,0 -0.078,0 l -20.517,-2.194 c -0.118,0 -0.235,-0.039 -0.353,-0.117 -4.464,-0.705 -10.102,-6.346 -14.213,-14.258 -4.346,-8.383 -5.639,-16.531 -3.25,-20.369 l 0.039,-0.118 11.277,-19.977 c 0.235,-0.431 0.744,-0.548 1.174,-0.313 0.431,0.235 0.549,0.744 0.314,1.175 l -11.277,20.055 c 0,0.039 -0.039,0.079 -0.039,0.079 -2.036,3.172 -0.666,11.007 3.289,18.645 3.876,7.482 9.475,13.122 13.313,13.396 0.117,0 0.274,0.04 0.352,0.118 l 20.048,2.154 c 0.469,0.04 0.822,0.47 0.743,0.94 -0.039,0.431 -0.391,0.784 -0.822,0.784 z"
     fill="#000000"
     id="path19" />
  <path
     d="m 176.43006,328.27108 c -6.656,-0.47 -15.975,-9.91 -22.749,-22.954 -7.165,-13.828 -8.849,-28.125 -4.464,-33.217 l -11.707,20.369 -0.078,0.156 c -2.232,3.447 -0.94,11.399 3.25,19.507 4.111,7.991 9.906,13.554 13.978,13.867 l -0.117,0.078 z"
     fill="#ffffff"
     id="path20" />
  <path
     d="m 176.43106,329.13308 c -0.04,0 -0.04,0 -0.079,0 -0.156,0 -0.352,-0.04 -0.509,-0.04 l -21.378,-2.154 c -0.118,0 -0.235,-0.039 -0.353,-0.118 -4.464,-0.705 -10.102,-6.345 -14.213,-14.258 -4.346,-8.382 -5.639,-16.53 -3.25,-20.369 l 0.039,-0.117 10.298,-17.94 c 0.391,-1.019 0.9,-1.92 1.527,-2.664 0.274,-0.353 0.783,-0.392 1.135,-0.157 0.353,0.274 0.47,0.744 0.235,1.136 l -1.448,2.468 c -2.311,6.228 -0.04,18.449 5.912,29.887 6.461,12.496 15.271,21.623 21.575,22.445 l 0.469,0.04 c 0.47,0.039 0.823,0.47 0.784,0.94 0.039,0.548 -0.314,0.901 -0.744,0.901 z m -21.34,-3.878 14.957,1.527 c -5.755,-3.682 -12.099,-11.281 -17.15,-21.074 -4.894,-9.44 -7.322,-19.233 -6.93,-26.283 l -7.792,13.592 c 0,0.039 -0.039,0.078 -0.039,0.078 -2.036,3.173 -0.666,11.007 3.289,18.646 3.876,7.481 9.475,13.122 13.313,13.396 0.117,0 0.274,0.039 0.352,0.118 z"
     fill="#000000"
     id="path21" />
  <path
     d="m 214.56565,322.12108 1.723,-0.353 c -9.319,1.959 -24.042,-12.143 -34.418,-32.159 -10.611,-20.447 -12.608,-40.855 -5.09,-46.888 l -0.979,0.98 -27.213,28.281 c -4.463,5.014 -2.819,19.39 4.386,33.295 6.93,13.397 16.758,22.955 23.454,22.915 z"
     fill="#000000"
     id="path22" />
  <path
     d="m 176.38965,329.09308 c -7.126,0 -17.032,-9.596 -24.198,-23.385 -7.282,-14.101 -9.123,-28.829 -4.267,-34.274 l 26.703,-27.733 c 0.47,-0.627 1.018,-1.175 1.606,-1.645 0.352,-0.275 0.861,-0.235 1.174,0.078 0.314,0.352 0.314,0.862 0,1.175 l -1.527,1.606 c -5.442,7.286 -2.74,25.931 6.774,44.302 10.259,19.821 24.59,33.413 33.361,31.768 l 0.117,-0.039 c 0.47,-0.078 0.901,0.196 1.018,0.666 0.078,0.47 -0.196,0.901 -0.666,1.018 -0.039,0 -0.078,0 -0.117,0.039 l -1.605,0.314 h -0.04 l -38.137,6.071 c -0.078,0 -0.156,0.039 -0.196,0.039 z m -4.033,-80.535 -23.14,24.051 c -4.307,4.857 -2.35,19.037 4.542,32.316 6.734,13.005 16.249,22.406 22.631,22.445 l 33.674,-5.367 c -9.084,-3.212 -20.282,-15.315 -28.936,-31.963 -8.222,-15.864 -11.394,-32.003 -8.771,-41.482 z"
     fill="#000000"
     id="path23" />
  <path
     d="m 340.09865,174.21208 c -6.147,3.133 -5.247,17.666 2.584,32.159 13.117,24.247 23.572,21.387 24.786,20.956 0.039,0 0.039,0.04 0,0.04 l -22.515,18.136 c -6.617,-9.284 -12.921,-19.625 -18.716,-30.789 -5.521,-10.693 -10.18,-21.348 -13.861,-31.689 z"
     fill="#000000"
     id="path24" />
  <path
     d="m 344.95365,246.36408 c -0.039,0 -0.078,0 -0.117,0 -0.235,-0.039 -0.431,-0.156 -0.588,-0.352 -6.773,-9.519 -13.077,-19.938 -18.755,-30.867 -5.443,-10.498 -10.141,-21.191 -13.9,-31.767 -0.078,-0.235 -0.078,-0.471 0.039,-0.666 0.118,-0.196 0.274,-0.353 0.509,-0.431 l 27.722,-8.814 c 0.431,-0.117 0.901,0.079 1.057,0.509 0.157,0.431 0,0.901 -0.391,1.097 -1.332,0.666 -2.311,1.998 -2.898,3.957 -1.918,6.149 0.431,17.039 5.873,27.028 12.804,23.659 22.671,20.956 23.729,20.564 0.391,-0.156 0.861,0.039 1.057,0.392 0.196,0.353 0.117,0.862 -0.196,1.136 l -22.593,18.019 c -0.156,0.117 -0.352,0.195 -0.548,0.195 z m -31.441,-62.791 c 3.719,10.224 8.261,20.565 13.508,30.75 5.482,10.576 11.59,20.643 18.129,29.926 l 19.538,-15.746 c -4.463,-0.196 -12.882,-3.526 -22.749,-21.74 -5.716,-10.537 -8.066,-21.662 -5.991,-28.36 0.275,-0.862 0.588,-1.606 0.979,-2.311 z"
     fill="#000000"
     id="path25" />
  <path
     d="m 162.78545,78.771779 c 17.9,-9.4037 24.824,-31.4815 15.464,-49.3122 -9.36,-17.8307 -31.458,-24.6620902 -49.358,-15.2584 -17.9,9.4037 -24.823,31.4815 -15.464,49.3122 9.36,17.8307 31.458,24.6621 49.358,15.2584 z"
     fill="#000000"
     id="path26" />
  <path
     d="m 128.46005,35.583958 c 1.723,-2.3503 4.268,-3.7996 7.166,-4.1129 2.192,-0.2351 4.228,0.235 6.147,1.4101 0.979,0.5876 1.84,1.3318 2.663,2.2328 0.587,-1.0577 1.292,-1.9978 2.114,-2.7812 1.605,-1.5668 3.524,-2.4678 5.678,-2.7028 2.897,-0.3134 5.716,0.5484 7.909,2.4678 2.153,1.8802 3.524,4.6222 3.876,7.7167 0.353,3.1728 -0.509,6.2282 -2.701,9.5969 -1.958,3.0161 -4.934,6.1498 -8.38,9.8319 -1.174,1.253395 -2.506,2.663595 -3.876,4.152095 -0.352,0.3917 -0.861,0.6659 -1.41,0.7051 -0.548,0.0783 -1.057,-0.0784 -1.527,-0.3917 -1.683,-1.1752 -3.289,-2.2719 -4.698,-3.2121 -4.151,-2.820295 -7.753,-5.248895 -10.337,-7.755795 -2.898,-2.7811 -4.386,-5.6015 -4.738,-8.7743 -0.313,-3.0945 0.431,-6.0715 2.114,-8.3826 z"
     fill="#ffffff"
     id="path27" />
  <path
     d="m 265.04086,79.354064 c 13.105,-13.1096 13.105,-34.364395 0,-47.473995 -13.104,-13.1096 -34.35,-13.1096 -47.455,0 -13.104,13.1095 -13.104,34.364395 0,47.473995 13.105,13.1096 34.351,13.1096 47.455,0 z"
     fill="#b9ff66"
     id="path28" />
  <path
     d="m 240.60145,91.447579 c -18.952,0 -34.418,-15.4333 -34.418,-34.4313 0,-18.9587 15.427,-34.4313 34.418,-34.4313 18.99,0 34.417,15.4334 34.417,34.4313 0,18.9588 -15.427,34.4313 -34.417,34.4313 z m 0,-67.139 c -18.012,0 -32.695,14.6499 -32.695,32.7077 0,18.0187 14.644,32.7078 32.695,32.7078 18.011,0 32.694,-14.6499 32.694,-32.7078 0,-18.0186 -14.644,-32.7077 -32.694,-32.7077 z"
     fill="#b9ff66"
     id="path29" />
  <path
     d="m 250.39086,58.932869 c -1.879,0 -3.524,0.901 -4.62,2.3111 l -11.316,-4.4263 c 0,-0.1567 0.039,-0.2742 0.039,-0.4309 0,-0.2742 -0.039,-0.5484 -0.078,-0.8226 l 11.59,-5.3664 c 1.057,1.2143 2.623,1.9977 4.385,2.0369 3.211,0 5.873,-2.6245 5.873,-5.8757 0,-3.2512 -2.623,-5.9148 -5.873,-5.9148 -3.211,0 -5.873,2.6245 -5.873,5.8757 0,0.2742 0.039,0.5484 0.078,0.8226 l -11.59,5.3664 c -1.057,-1.2143 -2.623,-1.9977 -4.385,-2.0369 -3.211,0 -5.873,2.6244 -5.873,5.8756 0,3.2512 2.623,5.914895 5.873,5.914895 1.879,0 3.524,-0.900995 4.62,-2.311095 l 11.316,4.426295 c 0,0.1567 -0.039,0.2742 -0.039,0.4309 0,3.2512 2.623,5.9148 5.873,5.9148 3.211,0 5.873,-2.6245 5.873,-5.8757 -0.039,-3.251195 -2.662,-5.875595 -5.873,-5.914795 z"
     fill="#000000"
     id="path30" />
  <path
     d="m 542.58124,94.628284 c 15.366,-10.671 19.227,-31.71 8.623,-46.994 -10.605,-15.284 -31.658,-19.024 -47.025,-8.354 -15.366,10.67 -19.227,31.71 -8.623,46.994 10.605,15.283996 31.658,19.023996 47.025,8.354 z"
     fill="#000000"
     id="path31" />
  <path
     d="m 514.92524,80.889068 -4.933,-26.754 c -0.235,-1.371 1.018,-2.507 2.349,-2.154 l 29.171,8.265 c 1.488,0.431 1.84,2.35 0.626,3.29 l -24.276,18.489 c -1.057,0.862 -2.663,0.274 -2.937,-1.136 z"
     fill="#ffffff"
     id="path32" />
  <path
     d="m 520.93003,203.51088 c 18.977,-9.242 26.917,-32.029 17.736,-50.896 -9.181,-18.867 -32.007,-26.67 -50.984,-17.428 -18.976,9.241 -26.916,32.028 -17.735,50.895 9.181,18.867 32.007,26.67 50.983,17.429 z"
     fill="#b9ff66"
     id="path33" />
  <path
     d="m 504.81943,208.98228 c -4.072,0 -8.223,-0.627 -12.256,-1.998 -9.867,-3.29 -17.855,-10.184 -22.475,-19.507 -4.62,-9.283 -5.325,-19.82 -1.997,-29.691 6.891,-20.33 29.053,-31.416 49.453,-24.639 9.867,3.29 17.855,10.184 22.475,19.507 4.621,9.284 5.325,19.821 1.997,29.692 -5.56,16.295 -20.87,26.636 -37.197,26.636 z m 0.391,-76.07 c -15.623,0 -30.267,9.871 -35.553,25.461 -3.171,9.44 -2.506,19.507 1.919,28.36 4.424,8.892 12.06,15.512 21.496,18.645 19.499,6.463 40.682,-4.113 47.261,-23.541 3.171,-9.441 2.505,-19.508 -1.919,-28.36 -4.425,-8.892 -12.06,-15.512 -21.496,-18.646 -3.877,-1.331 -7.831,-1.919 -11.708,-1.919 z"
     fill="#000000"
     id="path34" />
  <path
     d="m 524.47644,162.48348 c -0.392,9.519 -16.484,31.768 -20.322,36.978 -0.391,0.548 -1.213,0.509 -1.566,-0.079 -2.427,-3.917 -10.454,-17.078 -14.644,-27.733 -1.683,-4.23 -2.741,-8.069 -2.623,-10.772 0.431,-10.811 9.554,-19.233 20.361,-18.802 10.806,0.509 19.225,9.597 18.794,20.408 z"
     fill="#000000"
     id="path35" />
  <path
     d="m 510.52503,167.34308 c 3.502,-3.503 3.502,-9.183 0,-12.686 -3.502,-3.503 -9.179,-3.503 -12.68,0 -3.502,3.503 -3.502,9.183 0,12.686 3.501,3.503 9.178,3.503 12.68,0 z"
     fill="#b9ff66"
     id="path36" />
  <defs
     id="defs37">
    <clipPath
       id="clip0_332_1228">
      <rect
         width="36"
         height="36"
         fill="white"
         transform="translate(293.537 427)"
         id="rect36" />
    </clipPath>
    <clipPath
       id="clip1_332_1228">
      <rect
         width="70.3259"
         height="70.3259"
         fill="white"
         transform="translate(108.266 313) rotate(45)"
         id="rect37" />
    </clipPath>
  </defs>
</svg>
