<?xml version="1.0" encoding="UTF-8"?>
<!-- Created with Inkscape (http://www.inkscape.org/) -->
<svg width="1896" height="459.2" version="1.1" viewBox="0 0 1896 459.2" xmlns="http://www.w3.org/2000/svg" xmlns:xlink="http://www.w3.org/1999/xlink">
 <defs>
  <clipPath id="clipPath4">
   <path transform="matrix(1 0 0 -1 -284.5 391.05)" d="m0 0h1920v1080h-1920z"/>
  </clipPath>
 </defs>
 <g transform="translate(-386.53 -539.39)">
  <path transform="matrix(1.3333 0 0 1.3333 379.33 918.6)" d="m5.4033-9.875e-4 55.195-210h69l55.207 210h-40.805l-11.402-46.195h-75l-11.402 46.195zm61.5-82.805h56.402l-25.5-102.29h-5.4023zm28.195-141.6c-8.5957 0-15.943-2.8477-22.043-8.543-6.1025-5.7012-9.1523-12.855-9.1523-21.457s3-15.75 9-21.445c6-5.7012 13.397-8.5547 22.195-8.5547 8.8037 0 16.207 2.8008 22.207 8.4023 6 5.6016 9 12.803 9 21.598 0 9.2051-3.1523 16.506-9.457 21.902-6.2988 5.3994-13.547 8.0977-21.75 8.0977zm0-21c2.8037 0 5.0039-0.84668 6.5977-2.543 1.5996-1.7022 2.4023-3.8555 2.4023-6.457s-0.80273-4.749-2.4023-6.4453c-1.5938-1.7022-3.7939-2.5547-6.5977-2.5547-2.5957 0-4.7432 0.85254-6.4453 2.5547-1.7051 1.6963-2.5547 3.8438-2.5547 6.4453s0.84961 4.7549 2.5547 6.457c1.7021 1.6963 3.8496 2.543 6.4453 2.543zm110.1 245.4v-148.8h37.195v19.5h5.4023c2.3965-5.1943 6.8965-10.14 13.5-14.836 6.6006-4.7022 16.6-7.0547 30-7.0547 11.602 0 21.75 2.6484 30.445 7.9453 8.7012 5.2969 15.451 12.598 20.25 21.902 4.8047 9.2988 7.207 20.145 7.207 32.543v88.805h-37.805v-85.805c0-11.194-2.751-19.594-8.25-25.195-5.502-5.6016-13.348-8.4023-23.543-8.4023-11.602 0-20.602 3.8525-27 11.555-6.3984 7.6963-9.5977 18.445-9.5977 32.25v75.598zm171.61-73.805v-4.793c0-15.601 3.0967-28.951 9.293-40.055 6.2022-11.101 14.452-19.6 24.75-25.5 10.304-5.8975 21.554-8.8477 33.75-8.8477 13.6 0 23.9 2.4024 30.902 7.207 6.999 4.7988 12.1 9.794 15.305 14.988h5.3906v-18h37.207v175.21c0 10.195-3 18.343-9 24.445-6 6.0996-14.001 9.1523-24 9.1523h-99.598v-33h86.391c5.6016 0 8.4023-3 8.4023-9v-38.695h-5.4023c-2.001 3.1963-4.8018 6.4453-8.4024 9.75-3.5947 3.2988-8.3906 6.0469-14.391 8.25-6 2.1973-13.603 3.293-22.805 3.293-12.196 0-23.446-2.9473-33.75-8.8477-10.298-5.8975-18.548-14.396-24.75-25.5-6.1963-11.101-9.293-24.451-9.293-40.055zm78.598 41.402c11.602 0 21.299-3.6973 29.098-11.098 7.7959-7.3975 11.695-17.795 11.695-31.195v-3c0-13.6-3.8525-24.05-11.555-31.348-7.6963-7.3037-17.443-10.957-29.238-10.957-11.602 0-21.305 3.6533-29.109 10.957-7.7988 7.2979-11.695 17.748-11.695 31.348v3c0 13.4 3.8965 23.798 11.695 31.195 7.8047 7.4004 17.508 11.098 29.109 11.098zm181.8 36.598c-14.807 0-27.861-3.1494-39.164-9.4453-11.297-6.2959-20.095-15.193-26.391-26.695-6.2988-11.499-9.4453-25.049-9.4453-40.652v-3.5977c0-15.601 3.0967-29.15 9.293-40.652 6.2022-11.499 14.9-20.396 26.098-26.695 11.203-6.3047 24.202-9.457 39-9.457 14.602 0 27.299 3.252 38.098 9.75 10.805 6.501 19.207 15.501 25.207 27 6 11.502 9 24.853 9 40.055v12.891h-108.3c0.4043 10.204 4.207 18.504 11.402 24.902 7.2012 6.3984 16.002 9.5977 26.402 9.5977 10.6 0 18.401-2.2969 23.402-6.8906 4.998-4.5996 8.8008-9.7031 11.402-15.305l30.891 16.195c-2.7978 5.2031-6.8496 10.857-12.152 16.957-5.2969 6.1025-12.349 11.303-21.152 15.598-8.7978 4.2949-19.992 6.4453-33.586 6.4453zm-36.305-95.695h69.598c-0.79687-8.6016-4.248-15.498-10.348-20.695-6.1025-5.2031-14.051-7.8047-23.848-7.8047-10.204 0-18.305 2.6016-24.305 7.8047-6 5.1973-9.7002 12.094-11.098 20.695zm197.41 95.695c-19.406 0-35.309-4.1982-47.707-12.598-12.398-8.3965-19.898-20.396-22.5-36l34.805-9c1.3975 7.002 3.7441 12.501 7.043 16.5 3.3047 4.002 7.4062 6.8525 12.305 8.5547 4.8984 1.6963 10.248 2.543 16.055 2.543 8.7949 0 15.293-1.5469 19.488-4.6406 4.2012-3.0996 6.3047-6.9521 6.3047-11.555 0-4.5996-2.001-8.1504-6-10.652-4.002-2.499-10.4-4.5498-19.195-6.1523l-8.4024-1.5c-10.4-1.998-19.898-4.749-28.5-8.25-8.6016-3.498-15.504-8.3467-20.707-14.543-5.1973-6.2021-7.793-14.203-7.793-24 0-14.804 5.3965-26.156 16.195-34.055 10.805-7.8984 25.008-11.848 42.609-11.848 16.594 0 30.39 3.7002 41.391 11.098 10.998 7.4004 18.202 17.098 21.609 29.098l-35.109 10.805c-1.5938-7.5996-4.8457-12.999-9.75-16.195-4.8984-3.2022-10.945-4.8047-18.141-4.8047-7.2041 0-12.709 1.251-16.512 3.75-3.7969 2.502-5.6953 5.9502-5.6953 10.348 0 4.8047 1.998 8.3555 6 10.652 3.999 2.2969 9.4014 4.0488 16.207 5.25l8.3906 1.5c11.203 2.001 21.354 4.6523 30.457 7.957 9.0996 3.2988 16.301 7.998 21.598 14.098 5.2969 6.0938 7.9453 14.344 7.9453 24.75 0 15.595-5.6484 27.642-16.945 36.141-11.297 8.502-26.446 12.75-45.445 12.75zm143.39-4.1953c-9.7969 0-17.748-3.0498-23.848-9.1523-6.1025-6.0996-9.1523-14.25-9.1523-24.445v-84h-37.195v-31.207h37.195v-46.195h37.805v46.195h40.793v31.207h-40.793v77.402c0 6 2.7949 9 8.3906 9h28.805v31.195zm136.2 4.1953c-14.807 0-27.861-3.1494-39.164-9.4453-11.297-6.2959-20.095-15.193-26.391-26.695-6.2988-11.499-9.4453-25.049-9.4453-40.652v-3.5977c0-15.601 3.0967-29.15 9.293-40.652 6.2022-11.499 14.9-20.396 26.098-26.695 11.203-6.3047 24.202-9.457 39-9.457 14.602 0 27.299 3.252 38.098 9.75 10.805 6.501 19.207 15.501 25.207 27 6 11.502 9 24.853 9 40.055v12.891h-108.3c0.4043 10.204 4.207 18.504 11.402 24.902 7.2012 6.3984 16.002 9.5977 26.402 9.5977 10.6 0 18.401-2.2969 23.402-6.8906 4.998-4.5996 8.8008-9.7031 11.402-15.305l30.891 16.195c-2.7979 5.2031-6.8496 10.857-12.152 16.957-5.2969 6.1025-12.349 11.303-21.152 15.598-8.7979 4.2949-19.992 6.4453-33.586 6.4453zm-36.305-95.695h69.598c-0.7969-8.6016-4.248-15.498-10.348-20.695-6.1026-5.2031-14.051-7.8047-23.848-7.8047-10.204 0-18.305 2.6016-24.305 7.8047-6 5.1973-9.7002 12.094-11.098 20.695zm135.6 91.5v-210h37.805v210zm73.802 0v-210h37.805v210zm130.8 0c-9.7969 0-17.748-3.0498-23.848-9.1523-6.1026-6.0996-9.1524-14.25-9.1524-24.445v-84h-37.195v-31.207h37.195v-46.195h37.805v46.195h40.793v31.207h-40.793v77.402c0 6 2.7949 9 8.3906 9h28.805v31.195z" clip-path="url(#clipPath4)" fill="#000000 icc-color(sRGB-IEC61966-2, 0.1, 0, 0, 0)" aria-label="Ångestellt"/>
 </g>
</svg>
